PathFileType	4	(X/Y/Z)	s01c0102.trc
DataRate	CameraRate	NumFrames	NumMarkers	Units	OrigDataRate	OrigDataStartFrame	OrigNumFrames
200	200	5	48	mm	200	1750	2000
Frame#	Time	racr			lacr			c7			jug			rlel			rdr			llel			ldr			s2			lic			ric			lasi			rasi			rpsi			lpsi			rgt			lgt			rth1			rth2			rth3			rth4			rlfc			rsh1			rsh2			rsh3			rsh4			rlmal			rmmal			rcal			rtoe			rmt5			lth1			lth2			lth4			lth3			llfc			lsh1			lsh2			lsh3			lsh4			llmal			lmmal			lcal			ltoe			lmt5			SBIKE			LBIKE			RBIKE			
		X1	Y1	Z1	X2	Y2	Z2	X3	Y3	Z3	X4	Y4	Z4	X5	Y5	Z5	X6	Y6	Z6	X7	Y7	Z7	X8	Y8	Z8	X9	Y9	Z9	X10	Y10	Z10	X11	Y11	Z11	X12	Y12	Z12	X13	Y13	Z13	X14	Y14	Z14	X15	Y15	Z15	X16	Y16	Z16	X17	Y17	Z17	X18	Y18	Z18	X19	Y19	Z19	X20	Y20	Z20	X21	Y21	Z21	X22	Y22	Z22	X23	Y23	Z23	X24	Y24	Z24	X25	Y25	Z25	X26	Y26	Z26	X27	Y27	Z27	X28	Y28	Z28	X29	Y29	Z29	X30	Y30	Z30	X31	Y31	Z31	X32	Y32	Z32	X33	Y33	Z33	X34	Y34	Z34	X35	Y35	Z35	X36	Y36	Z36	X37	Y37	Z37	X38	Y38	Z38	X39	Y39	Z39	X40	Y40	Z40	X41	Y41	Z41	X42	Y42	Z42	X43	Y43	Z43	X44	Y44	Z44	X45	Y45	Z45	X46	Y46	Z46	X47	Y47	Z47	X48	Y48	Z48	
1750	8.7500	508.503937	1355.882935	-110.342201	526.129333	1358.780884	-410.457886	421.626343	1430.042969	-261.305542	477.271027	1271.650635	-266.298737	600.660339	1078.816528	-50.654190	733.054871	852.791809	-77.441574	610.312683	1082.233398	-467.946259	733.861816	863.570923	-421.042847	-64.993988	1153.373413	-233.892731	96.744377	1161.487183	-415.355194	122.179008	1136.130737	-99.047722	85.314384	1103.349121	-402.985779	133.958817	1093.421875	-133.367172	-23.362442	1184.849976	-182.940292	-39.853420	1196.194824	-287.714600	61.583496	1040.506592	-56.435158	12.111184	1021.738159	-444.473419	174.596680	977.157349	-57.573753	253.458099	953.187256	-67.603241	336.201141	920.663208	-85.331337	270.020630	1004.074707	-84.469147	409.558502	848.534851	-116.797630	317.536499	782.794373	-81.895966	253.666733	727.112305	-82.079391	180.362152	676.483765	-89.737556	281.658264	691.779053	-122.099792	75.354416	602.392578	-101.704918	112.500175	594.164917	-184.523544	14.954046	592.122070	-153.331406	251.220688	457.809845	-136.838135	144.815125	478.447052	-67.842812	62.636730	896.962341	-452.290161	123.788834	832.012512	-449.058777	164.160278	869.091370	-445.137329	175.813034	768.002869	-425.918182	234.652725	671.258545	-409.044220	197.991257	563.826599	-443.765411	198.977737	476.905792	-439.751740	197.792175	391.425232	-426.604492	255.231537	479.367065	-413.513550	196.340958	262.337830	-408.411041	0.000000	0.000000	-0.000000	153.888397	226.528091	-366.999573	431.072784	212.987473	-372.660889	327.099548	187.672211	-438.609192	-225.146866	892.497498	-252.621841	-12.657924	84.564095	-455.927216	-21.554020	80.799362	-55.850414	
1751	8.7550	508.664062	1356.000854	-110.178162	526.302734	1358.866699	-410.245087	421.747253	1430.230469	-261.160950	477.405487	1271.796875	-266.183899	600.737427	1078.867554	-50.582726	733.034729	852.797913	-77.408630	610.488831	1082.344727	-467.677887	733.890747	863.565674	-420.994659	-64.850304	1153.406494	-233.976959	96.897667	1161.494019	-415.301910	122.333351	1136.133545	-99.008972	85.526985	1103.366333	-402.914490	134.092804	1093.368408	-133.307281	-23.251135	1184.866455	-182.888580	-39.718468	1196.233032	-287.669525	61.670574	1040.476318	-56.405033	12.368986	1021.770264	-444.453857	174.613907	977.115723	-57.447235	253.506943	953.118835	-67.428734	336.283417	920.612488	-85.129593	270.109467	1004.005554	-84.248093	409.646729	848.414490	-116.550491	317.600433	782.679321	-81.696762	253.714172	727.028748	-81.935455	180.405045	676.436707	-89.633492	281.703278	691.722412	-121.973770	75.371681	602.384888	-101.683395	112.545326	594.160217	-184.473663	14.975757	592.135803	-153.316742	251.215195	457.781006	-136.815720	144.807693	478.429993	-67.844078	62.890961	897.012512	-452.255249	124.021812	832.088013	-448.997742	164.362411	869.150391	-445.045044	176.020432	768.057617	-425.866150	234.861786	671.303284	-409.002869	198.165054	563.877502	-443.749603	199.128799	476.953583	-439.722229	197.909851	391.489899	-426.600830	255.395767	479.424103	-413.503632	196.386887	262.413544	-408.410461	0.000000	0.000000	-0.000000	153.936050	226.586227	-366.977386	431.101379	212.975479	-372.665436	327.134277	187.707535	-438.598785	-225.142914	892.516174	-252.612564	-12.656454	84.578651	-455.910980	-21.572374	80.815575	-55.841217	
1752	8.7600	508.824463	1356.094971	-110.010376	526.484680	1358.963013	-410.047577	421.836273	1430.418335	-260.992371	477.513397	1271.932983	-266.058929	600.817871	1078.916992	-50.531761	733.033630	852.814148	-77.405647	610.635193	1082.421265	-467.424194	733.894348	863.553589	-420.971069	-64.719032	1153.417847	-233.925644	96.997147	1161.537109	-415.195465	122.487953	1136.129150	-98.956100	85.723640	1103.404907	-402.822754	134.213150	1093.343872	-133.230469	-23.131712	1184.867065	-182.830399	-39.586720	1196.252808	-287.627258	61.739883	1040.458496	-56.374294	12.604793	1021.827454	-444.422852	174.687057	977.051453	-57.328110	253.546204	953.058960	-67.274994	336.351227	920.532043	-84.909615	270.196259	1003.916748	-84.051239	409.725128	848.340637	-116.243546	317.657288	782.588928	-81.511253	253.757507	726.945007	-81.770042	180.436127	676.398315	-89.530556	281.747314	691.645569	-121.809288	75.389832	602.400269	-101.657227	112.565361	594.187866	-184.468353	15.010542	592.159180	-153.309341	251.223190	457.767975	-136.821747	144.807983	478.433990	-67.827888	63.148674	897.091736	-452.213318	124.267899	832.161072	-448.947052	164.587128	869.218018	-444.961914	176.230667	768.115967	-425.819733	235.078873	671.357300	-408.961792	198.352554	563.946960	-443.710419	199.294083	477.005920	-439.697723	198.042786	391.564514	-426.599884	255.545746	479.444916	-413.458496	196.465851	262.462646	-408.405426	0.000000	0.000000	-0.000000	153.973892	226.676163	-367.009918	431.143219	212.955658	-372.656128	327.166412	187.725983	-438.596924	-225.142380	892.533508	-252.599380	-12.666705	84.564453	-455.920654	-21.570374	80.813805	-55.841202	
1753	8.7650	508.960663	1356.204590	-109.865738	526.686768	1359.033936	-409.855621	421.940826	1430.588501	-260.847900	477.640106	1272.059204	-265.950195	600.872986	1078.960815	-50.460499	733.045166	852.828064	-77.396675	610.744812	1082.494385	-467.205902	733.909729	863.545227	-420.950134	-64.318382	1153.633545	-231.666122	97.215088	1161.597046	-415.163574	122.618530	1136.124268	-98.904549	85.920639	1103.439087	-402.726227	134.352936	1093.218262	-133.166046	-22.966747	1184.846069	-182.795532	-39.447433	1196.274658	-287.580750	61.805538	1040.457886	-56.334827	12.840415	1021.879272	-444.392853	174.733109	977.007935	-57.186363	253.596069	952.985352	-67.081543	336.409241	920.448730	-84.709175	270.272705	1003.868530	-83.868515	409.837402	848.268066	-115.963448	317.725830	782.507690	-81.314110	253.803284	726.852722	-81.608154	180.459824	676.360413	-89.434006	281.812042	691.578064	-121.640793	75.406509	602.401794	-101.640259	112.618927	594.207397	-184.434692	15.028399	592.188904	-153.303802	251.208832	457.740936	-136.819382	144.805649	478.428558	-67.828667	63.431210	897.198059	-452.177826	124.511925	832.254700	-448.900482	164.832794	869.298340	-444.869659	176.464523	768.172791	-425.762421	235.304428	671.417297	-408.913055	198.534897	564.025269	-443.678192	199.455872	477.080780	-439.674530	198.179947	391.634125	-426.600159	255.701691	479.486206	-413.426147	196.527420	262.526367	-408.409973	0.000000	0.000000	-0.000000	154.016220	226.773224	-367.013367	431.183655	212.933075	-372.664703	327.187378	187.729324	-438.606598	-225.136841	892.541809	-252.585358	-12.665381	84.567184	-455.922119	-21.565420	80.808830	-55.841621	
1754	8.7700	509.087799	1356.325195	-109.705704	526.866272	1359.142578	-409.656921	422.029877	1430.767822	-260.715179	477.783783	1272.218628	-265.824951	600.952454	1079.035034	-50.380413	733.043030	852.829956	-77.409462	610.855896	1082.571167	-466.981079	733.923767	863.526917	-420.940918	-64.164345	1153.650146	-231.630707	97.446243	1161.625732	-415.104004	122.733261	1136.131348	-98.847443	86.125565	1103.483276	-402.614410	134.481064	1093.169678	-133.089401	-22.854559	1184.851562	-182.729874	-39.316906	1196.336182	-287.540802	61.889439	1040.460571	-56.288517	13.090951	1021.938782	-444.346466	174.764999	976.969482	-57.058018	253.628601	952.907715	-66.903206	336.447815	920.379822	-84.530830	270.323547	1003.806213	-83.691902	409.923462	848.181702	-115.686363	317.809204	782.415833	-81.095047	253.867447	726.805664	-81.475159	180.502304	676.329407	-89.346405	281.845795	691.497742	-121.497658	75.432579	602.399902	-101.617012	112.645187	594.225586	-184.406860	15.052254	592.218018	-153.302536	251.205093	457.701355	-136.821457	144.806091	478.421600	-67.827278	63.676430	897.270264	-452.127777	124.824532	832.388245	-448.873962	165.097031	869.412476	-444.767090	176.778915	768.246826	-425.722412	235.531921	671.478821	-408.869080	198.740646	564.102112	-443.634399	199.631607	477.150848	-439.650543	198.315308	391.707367	-426.579590	255.842697	479.549316	-413.396210	196.601425	262.608643	-408.385590	0.000000	0.000000	-0.000000	154.058533	226.870300	-367.016815	431.213531	212.903519	-372.652496	327.221283	187.741699	-438.601349	-225.130188	892.550354	-252.574524	-12.655161	84.592056	-455.919281	-21.556379	80.798851	-55.831100	
